# Blender 4.3.2
# www.blender.org
mtllib ClosedMaze.mtl
o Closed_Maze
v 1.833420 -2.000000 0.000000
v 0.833420 -2.000000 0.000000
v 0.833420 0.000000 0.000000
v 1.833420 -3.000000 0.000000
v 2.833420 -3.000000 0.000000
v 2.833420 -2.100000 0.000000
v 2.933420 -2.100000 0.000000
v 2.933420 -3.000000 0.000000
v 3.733420 -3.000000 0.000000
v 3.733420 -3.000000 0.000000
v 3.733420 -2.000000 0.000000
v 4.833420 -2.000000 0.000000
v 4.833420 -1.000000 0.000000
v 4.833420 -0.500000 0.000000
v 4.833420 0.000000 0.000000
v 4.833420 1.000000 -0.000000
v 2.833420 1.000000 -0.000000
v 2.833420 0.000000 0.000000
v 3.633420 0.000000 0.000000
v 3.633420 -0.100000 0.000000
v 2.733420 -0.100000 0.000000
v 2.733420 1.000000 -0.000000
v 0.833420 1.000000 -0.000000
v 1.883420 -0.950000 0.000000
v 3.833420 -0.950000 0.000000
v 3.833420 -1.050000 0.000000
v 1.783420 -1.050000 0.000000
v 1.783420 0.000000 0.000000
v 1.883420 0.000000 0.000000
v 4.933420 1.100000 -0.000000
v 0.733420 1.100000 -0.000000
v 0.733420 -3.100000 0.000000
v 1.833420 -2.000000 1.000000
v 4.933420 -3.100000 0.000000
v 0.833420 -2.000000 1.000000
v 0.833420 0.000000 1.000000
v 1.833420 -3.000000 1.000000
v 2.833420 -3.000000 1.000000
v 2.833420 -2.100000 1.000000
v 2.933420 -2.100000 1.000000
v 2.933420 -3.000000 1.000000
v 3.733420 -3.000000 1.000000
v 3.733420 -2.000000 1.000000
v 4.833420 -2.000000 1.000000
v 4.833420 -1.000000 1.000000
v 4.833420 -0.500000 1.000000
v 4.833420 0.000000 1.000000
v 4.833420 1.000000 1.000000
v 2.833420 1.000000 1.000000
v 2.833420 0.000000 1.000000
v 3.633420 0.000000 1.000000
v 3.633420 -0.100000 1.000000
v 2.733420 -0.100000 1.000000
v 2.733420 1.000000 1.000000
v 0.833420 1.000000 1.000000
v 1.883420 -0.950000 1.000000
v 3.833420 -0.950000 1.000000
v 3.833420 -1.050000 1.000000
v 1.783420 -1.050000 1.000000
v 1.783420 0.000000 1.000000
v 1.883420 0.000000 1.000000
v 4.933420 1.100000 1.000000
v 0.733420 1.100000 1.000000
v 0.733420 -3.100000 1.000000
v 4.933420 -3.100000 1.000000
v 1.783420 1.000000 -0.000000
v 1.783420 1.000000 1.000000
vn 1.0000 -0.0000 -0.0000
vn -0.0000 -1.0000 -0.0000
vn -0.0000 1.0000 -0.0000
vn -1.0000 -0.0000 -0.0000
vn -0.0000 -0.0000 -0.0000
vn -0.0000 -0.0000 1.0000
vn -0.0000 -0.0000 -1.0000
vt 0.569161 0.747052
vt 0.569161 0.875954
vt 0.522055 0.875954
vt 0.522055 0.747052
vt 0.239413 0.882738
vt 0.192306 0.882738
vt 0.192306 0.611367
vt 0.239413 0.611367
vt 0.474948 0.747052
vt 0.427841 0.747052
vt 0.427841 0.611367
vt 0.474948 0.611367
vt 0.522054 0.747052
vt 0.522054 0.611367
vt 0.569161 0.747052
vt 0.522055 0.611367
vt 0.569161 0.611367
vt 0.677507 0.964149
vt 0.630400 0.964149
vt 0.630400 0.855601
vt 0.677507 0.855601
vt 0.427841 0.875954
vt 0.380734 0.875954
vt 0.380734 0.753837
vt 0.427841 0.753837
vt 0.616268 0.706731
vt 0.616268 0.611367
vt 0.622971 0.611367
vt 0.622971 0.706731
vt 0.616268 0.747052
vt 0.569161 0.733484
vt 0.616268 0.733484
vt 0.333627 0.882738
vt 0.286520 0.882738
vt 0.286520 0.760621
vt 0.333627 0.760621
vt 0.616268 0.611367
vt 0.286520 0.611367
vt 0.333627 0.611367
vt 0.380734 0.869169
vt 0.333627 0.869169
vt 0.380734 0.760621
vt 0.616268 0.875954
vt 0.569161 0.875954
vt 0.616268 0.747052
vt 0.145199 0.611367
vt 0.489080 0.611367
vt 0.441973 0.611367
vt 0.441973 0.041488
vt 0.489080 0.041488
vt 0.677507 0.312859
vt 0.677507 0.448544
vt 0.630400 0.448544
vt 0.630400 0.312859
vt 0.474948 0.882738
vt 0.427841 0.882738
vt 0.427841 0.747052
vt 0.474948 0.747052
vt 0.536187 0.041488
vt 0.536187 0.611367
vt 0.286520 0.875953
vt 0.239413 0.875953
vt 0.239413 0.611367
vt 0.333627 0.611367
vt 0.380734 0.611367
vt 0.583293 0.041488
vt 0.583293 0.611367
vt 0.616268 0.802095
vt 0.622971 0.802095
vt 0.677507 0.855601
vt 0.630400 0.855601
vt 0.630400 0.719915
vt 0.677507 0.719915
vt 0.630400 0.041488
vt 0.630400 0.611367
vt 0.583293 0.611367
vt 0.583293 0.041488
vt 0.192306 0.889522
vt 0.145199 0.889522
vt 0.192306 0.611367
vt 0.630400 0.652073
vt 0.677507 0.652073
vt 0.427841 0.753837
vt 0.380734 0.753837
vt 0.380734 0.611367
vt 0.630400 0.584230
vt 0.677507 0.584230
vt 0.522055 0.882738
vt 0.474948 0.882738
vt 0.474948 0.747052
vt 0.522055 0.747052
vt 0.629673 0.611367
vt 0.629673 0.706731
vt 0.630400 0.448544
vt 0.677507 0.448544
vt 0.630400 0.041488
vt 0.677507 0.041488
vt 0.100448 0.875953
vt 0.145199 0.875954
vt 0.095737 0.889522
vt 0.095737 0.611367
vt 0.100448 0.611367
vt 0.050986 0.624936
vt 0.050986 0.889522
vt 0.046275 0.889522
vt 0.046275 0.611367
vt 0.095737 0.624936
vt 0.239413 0.326428
vt 0.239413 0.339996
vt 0.187596 0.339996
vt 0.187596 0.217879
vt 0.192306 0.217879
vt 0.192306 0.326428
vt 0.437262 0.326428
vt 0.390155 0.326428
vt 0.390155 0.434976
vt 0.385445 0.434976
vt 0.385445 0.312859
vt 0.437262 0.312859
vt 0.239413 0.055057
vt 0.244124 0.041488
vt 0.244124 0.611367
vt 0.239413 0.597798
vt 0.239413 0.468897
vt 0.050986 0.462113
vt 0.098092 0.462113
vt 0.098092 0.597798
vt 0.192306 0.597798
vt 0.093382 0.326428
vt 0.050986 0.326428
vt 0.046275 0.041488
vt 0.050986 0.204311
vt 0.050986 0.312859
vt 0.093382 0.312859
vt 0.192306 0.055057
vt 0.168753 0.055057
vt 0.145199 0.055057
vt 0.098093 0.055057
vt 0.098093 0.204311
vt 0.437262 0.597798
vt 0.437262 0.183958
vt 0.437262 0.055057
vt 0.441973 0.041488
vt 0.441973 0.611367
vt 0.295941 0.597798
vt 0.343048 0.597798
vt 0.366602 0.597798
vt 0.390155 0.597798
vt 0.244124 0.611367
vt 0.295941 0.055057
vt 0.295941 0.190742
vt 0.248835 0.190742
vt 0.248835 0.326428
vt 0.291231 0.326428
vt 0.291231 0.339996
vt 0.248835 0.339996
vt 0.248835 0.448544
vt 0.295941 0.448544
vt 0.244124 0.041488
vt 0.949561 0.649558
vt 0.845925 0.649558
vt 0.845925 0.548398
vt 0.949561 0.548398
s 1
usemtl Material.001
f 24/1/1 29/2/1 61/3/1 56/4/1
f 16/5/2 48/6/2 49/7/2 17/8/2
f 1/9/1 33/10/1 37/11/1 4/12/1
f 17/13/1 49/9/1 50/12/1 18/14/1
f 4/15/3 37/4/3 38/16/3 5/17/3
f 18/18/3 50/19/3 51/20/3 19/21/3
f 5/22/4 38/23/4 39/24/4 6/25/4
f 19/26/1 51/27/1 52/28/1 20/29/1
f 6/30/3 39/15/3 40/31/3 7/32/3
f 20/33/2 52/34/2 53/35/2 21/36/2
f 7/32/1 40/31/1 41/17/1 8/37/1
f 21/36/4 53/35/4 54/38/4 22/39/4
f 8/40/3 41/41/3 42/36/3 9/42/3
f 66/43/2 67/44/2 55/1/2 23/45/2
s 0
f 9/46/5 10/46/5 42/46/5
s 1
f 30/47/1 62/48/1 65/49/1 34/50/1
f 3/51/1 23/52/1 55/53/1 36/54/1
f 10/55/4 42/56/4 43/57/4 11/58/4
f 32/59/2 34/60/2 65/47/2 64/50/2
f 24/61/3 56/62/3 57/63/3 25/38/3
f 11/42/3 43/36/3 44/64/3 12/65/3
f 31/66/4 32/67/4 64/60/4 63/59/4
f 25/68/1 57/26/1 58/29/1 26/69/1
f 12/70/4 44/71/4 45/72/4 13/73/4
f 30/74/3 31/75/3 63/76/3 62/77/3
f 26/78/2 58/79/2 59/46/2 27/80/2
f 13/73/4 45/72/4 46/81/4 14/82/4
f 27/83/4 59/84/4 60/85/4 28/11/4
f 14/82/4 46/81/4 47/86/4 15/87/4
f 2/88/3 35/89/3 33/90/3 1/91/3
f 28/29/3 60/28/3 61/92/3 29/93/3
f 15/87/4 47/86/4 48/94/4 16/95/4
f 3/51/1 36/54/1 35/96/1 2/97/1
f 56/98/6 61/99/6 60/79/6 59/100/6 58/101/6 57/102/6
f 24/103/7 25/104/7 26/105/7 27/106/7 28/101/7 29/107/7
f 49/108/6 54/109/6 53/110/6 52/111/6 51/112/6 50/113/6
f 17/114/7 18/115/7 19/116/7 20/117/7 21/118/7 22/119/7
f 48/120/6 62/121/6 63/122/6 55/123/6 67/124/6 54/109/6 49/108/6
f 37/125/6 33/126/6 35/127/6 36/128/6 55/123/6 63/122/6 64/106/6
f 39/129/6 38/130/6 37/125/6 64/106/6 65/131/6 42/132/6 41/133/6 40/134/6
f 42/132/6 65/131/6 62/121/6 48/120/6 47/135/6 46/136/6 45/137/6 44/138/6 43/139/6
f 16/140/7 17/114/7 22/119/7 66/141/7 23/142/7 31/143/7 30/144/7
f 12/145/7 13/146/7 14/147/7 15/148/7 16/140/7 30/144/7 34/149/7
f 2/150/7 1/151/7 4/152/7 5/153/7 6/154/7 7/155/7 8/156/7 10/157/7 11/158/7 12/145/7 34/149/7 32/159/7
f 32/159/7 31/143/7 23/142/7 2/150/7
f 22/160/2 54/161/2 67/162/2 66/163/2
