# Blender 4.3.2
# www.blender.org
mtllib OpenMaze.mtl
o OpenMaze
v -2.622826 -1.000000 0.000000
v -2.622826 0.000000 0.000000
v -3.622826 0.000000 0.000000
v -1.122826 -1.000000 0.000000
v -1.122826 -0.250000 0.000000
v -0.622826 -0.250000 0.000000
v -0.622826 -1.250000 0.000000
v -3.622826 -1.250000 0.000000
v -1.422826 0.300000 -0.000000
v -2.122826 0.300000 -0.000000
v -2.122826 1.300000 -0.000000
v -1.422826 1.300000 -0.000000
v -2.622826 -1.000000 1.000000
v -2.622826 0.000000 1.000000
v -3.622826 0.000000 1.000000
v -1.122826 -1.000000 1.000000
v -1.122826 -0.250000 1.000000
v -0.622826 -0.250000 1.000000
v -0.622826 -1.250000 1.000000
v -3.622826 -1.250000 1.000000
v -1.422826 0.300000 1.000000
v -2.122826 0.300000 1.000000
v -2.122826 1.300000 1.000000
v -1.422826 1.300000 1.000000
v -3.068008 -1.250000 0.000000
v -3.068008 -1.250000 1.000000
v -3.068008 -2.250000 0.000000
v -3.622826 -2.250000 0.000000
v -3.068008 -2.250000 1.000000
v -3.622826 -2.250000 1.000000
vn -0.0000 -0.0000 -1.0000
vn -0.0000 -0.0000 1.0000
vn 1.0000 -0.0000 -0.0000
vn -1.0000 -0.0000 -0.0000
vn -0.0000 1.0000 -0.0000
vn 0.5774 -0.5774 -0.5774
vn -0.0000 -1.0000 -0.0000
vn 0.5774 -0.5774 0.5774
vn -0.7071 -0.0000 0.7071
vn -0.7071 -0.0000 -0.7071
vt 0.416419 0.309465
vt 0.337683 0.309465
vt 0.337683 0.649647
vt 0.396735 0.649647
vt 0.396735 0.763041
vt 0.318000 0.763041
vt 0.318000 0.208503
vt 0.318000 0.082677
vt 0.416419 0.082677
vt 0.239264 0.536253
vt 0.239264 0.763041
vt 0.140844 0.763041
vt 0.140844 0.637215
vt 0.140844 0.082677
vt 0.219580 0.082677
vt 0.219580 0.196071
vt 0.160528 0.196071
vt 0.160528 0.536253
vt 0.573891 0.637215
vt 0.573891 0.864003
vt 0.495155 0.864003
vt 0.495155 0.637215
vt 0.652626 0.536253
vt 0.652626 0.706344
vt 0.573891 0.706344
vt 0.573891 0.536253
vt 0.495155 0.082677
vt 0.495155 0.309465
vt 0.416419 0.082677
vt 0.573891 0.082677
vt 0.573890 0.637215
vt 0.495155 0.637215
vt 0.495155 0.082677
vt 0.415532 0.922434
vt 0.359519 0.922434
vt 0.359519 0.763041
vt 0.415532 0.763041
vt 0.239264 0.196071
vt 0.160528 0.763041
vt 0.495155 0.592950
vt 0.416419 0.592950
vt 0.652626 0.309465
vt 0.573891 0.309465
vt 0.652626 0.082677
vt 0.573890 0.865737
vt 0.573890 0.706344
vt 0.652309 0.706344
vt 0.652309 0.865737
vt 0.062109 0.922434
vt 0.062109 0.763041
vt 0.140527 0.763041
vt 0.140527 0.922434
vt 0.652626 0.536253
vt 0.218946 0.763041
vt 0.218946 0.922434
vt 0.297365 0.763041
vt 0.297365 0.922434
vt 0.062109 0.763041
vt 0.062109 0.637215
vt 0.495155 0.819738
vt 0.416419 0.819738
vt 0.813204 0.447904
vt 0.755255 0.206714
vt 0.239264 0.208503
vt 0.239264 0.082677
s 1
usemtl Material.002
f 2/1/1 1/2/1 4/3/1 5/4/1 6/5/1 7/6/1 25/7/1 8/8/1 3/9/1
f 14/10/2 15/11/2 20/12/2 26/13/2 19/14/2 18/15/2 17/16/2 16/17/2 13/18/2
f 7/19/3 6/20/3 18/21/3 19/22/3
f 5/23/4 4/24/4 16/25/4 17/26/4
f 2/27/5 3/28/5 15/1/5 14/29/5
f 25/30/6 7/31/7 19/32/7 26/33/8
f 6/34/5 5/35/5 17/36/5 18/37/5
f 4/38/5 1/10/5 13/18/5 16/17/5
f 1/10/3 2/11/3 14/39/3 13/18/3
f 3/28/4 8/40/4 20/41/4 15/1/4
f 12/42/3 24/43/3 21/30/3 9/44/3
f 9/45/7 21/46/7 22/47/7 10/48/7
f 11/49/5 23/50/5 24/51/5 12/52/5
f 10/53/4 22/26/4 23/43/4 11/42/4
f 21/54/2 24/55/2 23/52/2 22/51/2
f 9/54/1 10/56/1 11/57/1 12/55/1
f 26/13/8 20/12/9 30/58/9 29/59/8
f 28/35/7 27/57/6 29/56/8 30/36/7
f 20/41/9 8/40/10 28/60/10 30/61/9
f 25/62/6 26/63/8 29/63/8 27/62/6
f 8/8/10 25/7/6 27/64/6 28/65/10
